<svg xmlns="http://www.w3.org/2000/svg" xmlns:svg="http://www.w3.org/2000/svg" xmlns:xlink="http://www.w3.org/1999/xlink" id="svg4223" width="16" height="16" version="1.1"><defs id="defs4225"><linearGradient id="linearGradient3047"><stop style="stop-color:#146d39;stop-opacity:1" id="stop3049" offset="0"/><stop style="stop-color:#359b58;stop-opacity:1" id="stop3051" offset="1"/></linearGradient><linearGradient id="linearGradient5103-3-7"><stop id="stop5105-5-4" offset="0" style="stop-color:#96b956;stop-opacity:1"/><stop style="stop-color:#c6d560;stop-opacity:1" id="stop7550-07-0" offset=".267"/><stop style="stop-color:#cfdc63;stop-opacity:1" id="stop7548-6-9" offset=".517"/><stop id="stop5107-7-48" offset="1" style="stop-color:#abca52;stop-opacity:1"/></linearGradient><linearGradient id="linearGradient3081" x1="11.339" x2="11.339" y1="1064.051" y2="1067.051" gradientTransform="matrix(1,0,0,-1,-2.266193,2109.6406)" gradientUnits="userSpaceOnUse" xlink:href="#linearGradient3047"/><linearGradient id="linearGradient3083" x1="12.339" x2="12.339" y1="1043.051" y2="1048.051" gradientTransform="matrix(1,0,0,-1,-2.266193,2089.6406)" gradientUnits="userSpaceOnUse" xlink:href="#linearGradient5103-3-7"/></defs><metadata id="metadata4228"/><g id="layer1" transform="translate(0,-1036.3622)"><g id="g3866"><path style="fill:url(#linearGradient3083);fill-opacity:1;stroke:none;display:inline" id="path4108-1" d="m 5.519236,1047.6671 -0.816057,-1.9944 0.88243,-2.3985 3.398198,0.051 0,-1.5313 3.781143,2.432 -3.781143,3.0027 0,-1.5156 -2.544844,0 z"/><path style="fill:url(#linearGradient3081);fill-opacity:1;stroke:none;display:inline" id="path4108-1-6" d="m 7.983807,1047.8309 0,-1.5156 -0.07965,0 c -1.711191,0 -1.9036885,1.2987 -1.9036885,2.075 l -1,0 c -1.937334,-3.08 -0.6777005,-6.0631 1.8476505,-6.0884 l 1.135685,0.023 0,-1.5313 c 0,-0.6519 0.740915,-0.6375 1.5,0 l 3.923255,3.4983 -3.923255,3.5386 c -0.760225,0.7602 -1.5,0.5203 -1.5,0 z m 1,-1 2.985755,-2.5386 -2.985755,-2.4983 0,1.5313 -2.12809,0.07 c -1.65655,0 -2.276462,2.3386 -1.391431,3.4245 0.477391,-0.9138 0.93524,-1.5048 2.407536,-1.5048 l 1.111985,0 z"/></g></g></svg>